<?xml version="1.0" standalone="no"?><!-- Generator: Gravit.io --><svg xmlns="http://www.w3.org/2000/svg" xmlns:xlink="http://www.w3.org/1999/xlink" style="isolation:isolate" viewBox="0 0 64 64" width="64" height="64"><rect x="0" y="32" width="8" height="32" transform="matrix(1,0,0,1,0,0)" fill="rgb(255,255,255)"/><rect x="56" y="32" width="8" height="32" transform="matrix(1,0,0,1,0,0)" fill="rgb(255,255,255)"/><rect x="24" y="32" width="16" height="32" transform="matrix(1,0,0,1,0,0)" fill="rgb(255,255,255)"/><rect x="28" y="4" width="8" height="64" transform="matrix(0,-1,1,0,-4,68)" fill="rgb(255,255,255)"/><rect x="16" y="40" width="8" height="40" transform="matrix(0,-1,1,0,-40,80)" fill="rgb(255,255,255)"/><path d="M 40 32 L 40 32 C 40 36.415 43.585 40 48 40 L 48 40 C 43.585 40 40 43.585 40 48 L 40 48 C 40 43.585 36.415 40 32 40 L 32 40 C 36.415 40 40 36.415 40 32 Z" style="stroke:none;fill:#FFFFFF;stroke-miterlimit:10;"/><path d="M 56 32 L 56 32 C 56 36.415 59.585 40 64 40 L 64 40 C 59.585 40 56 43.585 56 48 L 56 48 C 56 43.585 52.415 40 48 40 L 48 40 C 52.415 40 56 36.415 56 32 Z" style="stroke:none;fill:#FFFFFF;stroke-miterlimit:10;"/><path d="M 15.492 16 L 48.508 16 C 57.058 16 64 22.942 64 31.492 L 64 40 L 0 40 L 0 31.492 C 0 22.942 6.942 16 15.492 16 Z" style="stroke:none;fill:#FFFFFF;stroke-miterlimit:10;"/></svg>